<?xml version="1.0" encoding="utf-8"?>
<!-- Generator: Adobe Illustrator 16.0.0, SVG Export Plug-In . SVG Version: 6.00 Build 0)  -->
<!DOCTYPE svg PUBLIC "-//W3C//DTD SVG 1.1//EN" "http://www.w3.org/Graphics/SVG/1.1/DTD/svg11.dtd" [
	<!ENTITY ns_flows "http://ns.adobe.com/Flows/1.0/">
	<!ENTITY ns_extend "http://ns.adobe.com/Extensibility/1.0/">
	<!ENTITY ns_ai "http://ns.adobe.com/AdobeIllustrator/10.0/">
	<!ENTITY ns_graphs "http://ns.adobe.com/Graphs/1.0/">
]>
<svg version="1.1" id="레이어_1" xmlns:x="&ns_extend;" xmlns:i="&ns_ai;" xmlns:graph="&ns_graphs;"
	 xmlns="http://www.w3.org/2000/svg" xmlns:xlink="http://www.w3.org/1999/xlink" xmlns:a="http://ns.adobe.com/AdobeSVGViewerExtensions/3.0/"
	 x="0px" y="0px" width="348.383px" height="348.382px" viewBox="0 0 348.383 348.382" enable-background="new 0 0 348.383 348.382"
	 xml:space="preserve">
<g>
	<g>
		<path fill-rule="evenodd" clip-rule="evenodd" fill="#FFFFFF" d="M0.444,348.808c0-116.111,0-232.233,0-348.363
			c116.258,0,232.524,0,348.8,0c0,116.112,0,232.233,0,348.363C232.986,348.808,116.72,348.808,0.444,348.808z M289.35,134.77
			c-3.332-5.679-5.635-13.266-5.012-17.227c2.065,2.739,3.931,5.213,5.985,7.938c0.684-0.184,1.396-2.354,3.183-0.82
			c0.615,0.529,1.787,0.529,2.702,0.521c0.265-0.002,0.849-1.159,0.725-1.302c-0.621-0.72-1.401-1.761-2.176-1.804
			c-2.252-0.125-2.332-1.679-2.419-3.165c-0.194-3.291-0.238-6.591-0.349-10.021c5.608,1.285,11.599,2.658,18.526,4.245
			c1.83-1.085,4.597-2.727,7.521-4.461c0.544,1.55,1.119,3.188,1.694,4.827c0.268,0.015,0.534,0.03,0.802,0.044
			c0.188-0.889,0.658-1.826,0.514-2.658c-0.642-3.715-0.642-7.125,2.651-9.814c1.216-0.992,0.891-2.63-0.46-3.496
			c-0.525-0.337-1.168-0.491-1.915-0.792c0.123-0.636,0.135-1.299,0.382-1.857c0.689-1.555,0.104-2.515-1.333-3.075
			c-1.552-0.604-2.488,0.363-2.751,1.62c-0.387,1.858-0.527,3.795-0.531,5.7c-0.009,4.474-4.514,7.76-8.591,6.178
			c-0.531-0.206-1.109-0.479-1.649-0.446c-5.024,0.309-9.583-2.525-14.618-2.143c-0.553,0.042-1.235-0.074-1.67-0.382
			c-0.584-0.414-0.984-1.086-1.463-1.647c0.115-0.106,0.231-0.211,0.347-0.317c-1.02-0.462-2.039-0.924-3.059-1.385
			c0.079-0.198,0.157-0.395,0.236-0.592c0.402,0.067,0.803,0.178,1.208,0.195c3.732,0.149,6.504,3.443,10.549,2.955
			c2.782-0.335,5.67,0.208,8.51,0.357c0.12-0.327,0.241-0.654,0.361-0.981c-0.591-0.379-1.461-1.225-1.729-1.065
			c-2.852,1.708-5.448,0.339-8.135-0.414c-1.645-0.461-3.346-0.732-5.034-1.019c-0.992-0.169-2.016-0.147-3.011-0.302
			c-5.453-0.849-7.926-5.316-11.506-9.432c1.922,0.664,3.234,1.328,4.617,1.549c2.534,0.405,5.107,0.652,7.672,0.723
			c0.594,0.017,1.216-0.939,1.824-1.447c-1.537,0.159-2.714,1.039-3.786,0.926c-4.125-0.435-8.432-0.636-11.182-4.589
			c-0.29-0.417-1.106-0.48-1.688-0.679c-2.543-0.868-4.686-2.286-6.339-4.423c1.173,0.021,2.226,0.285,3.294,0.443
			c0.979,0.145,1.977,0.175,2.966,0.256c-4.878-0.741-6.554-1.591-7.511-4.378c1.167-0.491,2.348-1.415,3.508-1.389
			c2.558,0.056,4.047-1.878,6.078-2.75c0.469-0.201,0.657-1.053,0.974-1.605c-0.132-0.184-0.264-0.368-0.396-0.552
			c-1.756,3.007-4.1,3.433-6.846,1.925c-0.379-0.208-0.652-0.611-0.975-0.923c0.348-0.285,0.667-0.761,1.051-0.821
			c1.639-0.255,3.306-0.33,4.943-0.588c0.89-0.14,1.947-0.281,2.57-0.829c1.466-1.29-0.251-1.824-1.148-2.703
			c2.069-0.743,3.917-1.406,5.764-2.069c-0.032-0.253-0.065-0.507-0.099-0.761c-2.155,0.14-4.626-0.324-6.376,0.592
			c-1.713,0.895-2.437,0.242-3.829-0.444c1.001-0.393,1.872-0.523,2.445-1.006c1.108-0.933,2.154-1.989,3-3.157
			c0.289-0.4-0.097-1.29-0.175-1.955c-0.621,0.192-1.291,0.296-1.849,0.604c-0.486,0.269-0.806,0.822-1.269,1.153
			c-1.457,1.044-2.408,3.719-4.916,1.579c-0.123-0.105-0.588,0.05-0.798,0.209c-1.973,1.498-4.136,0.793-6.087,0.232
			c-1.277-0.367-2.061-0.26-3.182,0.347c-1.535,0.831-3.309,1.798-4.946,1.742c-3.101-0.108-6.129-0.364-9.185,0.505
			c-0.959,0.273-2.111-0.135-3.174-0.231c0.022-0.198,0.045-0.395,0.067-0.593c1.563-0.527,3.152-0.982,4.677-1.601
			c1.369-0.556,3.489-0.469,3.114-2.902c-2.021,0.874-3.972,1.718-6.224,2.691c0.584-1.136,0.914-1.778,1.3-2.528
			c-1.821,0.483-3.214,0.853-4.606,1.222c-0.063-0.208-0.125-0.417-0.188-0.626c0.353-0.205,0.701-0.414,1.057-0.612
			c1.766-0.987,3.56-1.928,5.273-2.999c0.283-0.177,0.217-0.914,0.313-1.392c-0.51,0.021-1.36-0.132-1.474,0.09
			c-1.058,2.079-3.056,1.898-4.877,2.252c-1.457,0.283-2.874,0.769-4.31,1.165c0.008,0.227,0.017,0.454,0.024,0.681
			c-0.819-0.555-1.639-1.11-2.445-1.656c-0.076,0.556-0.161,1.172-0.263,1.906c-5.451-3.543-10.62-7.001-15.904-10.272
			c-1.363-0.843-3.065-1.194-4.657-1.581c-0.592-0.144-1.477,0.59-1.952,0.358c-3.537-1.724-7.248-2.609-11.126-3.292
			c-5.589-0.983-11.049-2.672-16.605-3.868c-2.431-0.523-4.973-0.5-7.445-0.851c-3.474-0.493-6.928-1.155-10.284,0.548
			c-0.37,0.188-0.844,0.185-1.274,0.24c-3.433,0.443-6.905,0.686-10.287,1.374c-3.155,0.642-6.24,1.678-9.292,2.729
			c-0.553,0.19-0.795,1.285-1.18,1.961c0.69,0.251,1.369,0.547,2.077,0.729c0.229,0.059,0.533-0.183,0.804-0.284
			c4.423-1.656,8.786-1.924,13.088,0.443c0.533,0.293,1.268,0.339,1.901,0.313c7.281-0.289,14.489-0.239,21.706,1.334
			c7.335,1.599,14.813,2.542,22.237,3.727c4.029,0.643,6.899,3.152,9.684,5.826c0.182,0.174,0.412,0.519,0.352,0.69
			c-0.702,1.997,0.878,2.081,2.055,2.522c1.283,0.481,2.73,0.745,3.804,1.521c3.914,2.828,7.732,5.792,11.525,8.782
			c2.004,1.581,3.882,3.322,6.118,5.251c-1.047,0.339-1.603,0.52-2.149,0.696c1.035,0.904,1.948,1.702,3.373,2.948
			c-4.237,0.592-7.772,1.139-11.323,1.558c-1.496,0.176-3.037-0.028-4.529,0.161c-0.676,0.085-1.369,0.625-1.875,1.136
			c-0.175,0.177,0.065,1.181,0.339,1.302c0.664,0.293,1.566,0.583,2.184,0.357c4.183-1.531,8.338-2.692,12.87-1.498
			c1.995,0.525,4.822-0.479,4.591,3.181c-0.013,0.203,0.268,0.425,0.585,0.895c-3.221,1.521-6.294,2.921-9.309,4.439
			c-0.557,0.28-0.875,1.033-1.304,1.568c0.692-0.01,1.474,0.186,2.061-0.068c1.788-0.772,3.441-1.876,5.258-2.551
			c1.917-0.712,3.962-1.08,5.952-1.599c0.078,0.315,0.157,0.63,0.236,0.945c-0.892,0.208-1.779,0.441-2.678,0.618
			c-2.315,0.455-3.04,1.563-2.366,3.903c1.457-0.577,2.901-1.148,4.346-1.72c0.181,0.089,0.362,0.178,0.543,0.267
			c-0.406,0.805-0.707,1.691-1.249,2.39c-0.516,0.663-1.27,1.146-1.945,1.676c-3.803,2.983-7.575,6.006-11.442,8.904
			c-1.305,0.977-2.993,1.462-4.227,2.503c-0.527,0.446-0.522,1.773-0.367,2.628c0.047,0.261,1.672,0.662,2.108,0.349
			c1.503-1.076,2.824-2.414,4.17-3.698c3.178-3.031,6.33-6.087,9.492-9.133c0.223,0.17,0.444,0.341,0.666,0.511
			c-0.15,0.587-0.231,1.202-0.463,1.755c-0.82,1.958-2.09,3.825-2.444,5.856c-0.471,2.7-2.354,4.229-3.877,6.1
			c-0.542,0.665-1.33,1.133-1.857,1.808c-2.82,3.604-6.249,6.532-9.852,9.318c-0.995,0.77-1.651,2.104-2.167,3.307
			c-0.214,0.498,0.154,1.565,0.613,1.949c0.566,0.475,1.684,0.901,2.241,0.646c1.057-0.482,2.048-1.338,2.774-2.267
			c1.76-2.248,3.354-4.624,5.009-6.952c1.571-2.213,3.015-4.53,4.731-6.623c2.207-2.69,4.631-5.202,6.961-7.791
			c0.182,0.099,0.362,0.198,0.543,0.297c-0.569,3.626-1.077,7.264-1.743,10.873c-0.228,1.235,0.014,2.24,1.2,2.249
			c0.638,0.005,1.764-1.046,1.853-1.728c0.913-6.999,1.649-14.005,6.334-19.813c1.05-1.301,4.082-1.955,5.198-0.705
			c1.613,1.808,3.078,3.749,4.602,5.638c1.122,1.392,2.464,2.654,1.922,4.786c-0.111,0.433,0.457,1.284,0.936,1.581
			c2.32,1.438,2.456,3.755,2.552,6.059c0.091,2.19-0.196,4.412,0.051,6.577c0.543,4.74,1.171,9.446-0.229,14.153
			c-0.17,0.572-0.138,1.368,0.144,1.869c0.357,0.64,1.189,1.602,1.592,1.504c0.762-0.186,1.488-0.94,1.979-1.635
			c0.265-0.375,0.043-1.12-0.02-1.691c-0.609-5.588-1.323-11.167-1.812-16.765c-0.231-2.654-0.04-5.345-0.04-8.019
			c0.219-0.025,0.438-0.049,0.657-0.074c1.101,1.679,2.193,3.362,3.304,5.034c0.575,0.865,1.246,1.672,1.758,2.572
			c0.721,1.266,1.331,2.595,1.994,3.895c0.487,0.955,1.168,1.855,1.442,2.866c0.721,2.651,1.275,5.349,1.872,8.033
			c0.089,0.401,0.234,1.002,0.034,1.221c-2.003,2.203-0.696,4.285,0.227,6.319c0.725,1.598,2.052,2.987,1.023,4.971
			c-0.185,0.355,0.102,0.976,0.217,1.463c0.79,3.351,1.593,6.698,2.392,10.046c-1.656-0.554-2.836-1.439-4.081-2.222
			c-0.417-0.263-1.271-0.522-1.454-0.332c-0.467,0.484-0.897,1.229-0.887,1.861c0.006,0.376,0.821,0.862,1.361,1.086
			c2.099,0.872,4.232,1.658,6.317,2.463c0.005,2.557,0.006,4.888-2.49,6.518c-2.823,1.844-5.351,4.137-8.131,6.054
			c-5.22,3.599-10.96,5.438-17.381,4.653c-0.426-0.052-0.882-0.025-1.299,0.069c-1.416,0.322-2.371,1.99-1.977,3.386
			c0.378,1.339,1.861,1.909,3.39,1.257c0.793-0.339,1.508-0.9,2.324-1.134c6.102-1.744,12.264-3.295,18.313-5.204
			c2.424-0.765,5.285-1.385,6.055-4.57c0.142-0.586,0.493-1.121,0.747-1.68c0.193,0.216,0.387,0.432,0.58,0.648
			c-0.818,3.794-1.812,7.562-2.414,11.391c-0.926,5.881-3.34,11.148-6.224,16.241c-1.196,2.113-2.895,3.963-3.935,6.139
			c-1.182,2.474-2.547,4.635-4.972,6.012c-2.677,1.521-5.202,3.463-8.058,4.468c-2.995,1.054-6.293,1.523-9.479,1.633
			c-1.636,0.057-3.281-1.354-4.995-1.849c-0.793-0.229-1.761,0.149-2.649,0.253c0.171,1.013-0.011,2.393,0.584,2.962
			c1.268,1.214,2.834,2.271,4.466,2.912c2.732,1.075,5.391,1.166,8.269-0.411c2.277-1.249,5.203-1.251,7.723-2.143
			c2.258-0.798,4.75-1.629,6.433-3.201c2.783-2.601,5.998-5.046,7.082-9.051c0.018-0.068,0.248-0.078,0.646-0.191
			c0,1.343-0.063,2.613,0.011,3.876c0.418,7.127-2.309,13.308-5.761,19.271c-0.177,0.307-0.466,0.556-0.729,0.804
			c-1.316,1.248-1.786,2.497,0.279,3.854c-2.181,3.264-4.295,6.431-6.409,9.597c0.275,0.184,0.551,0.368,0.825,0.553
			c5.296-4.8,8.14-11.354,11.596-17.96c0,2.299,0.013,4.042-0.003,5.785c-0.025,2.826,0.509,5.423,2.587,7.563
			c0.849,0.872,1.788,1.352,2.513,0.367c0.311-0.424-0.319-1.673-0.713-2.45c-0.654-1.294-1.986-2.467-2.097-3.77
			c-0.231-2.75,0.143-5.55,0.269-8.339c0.958,0.194,1.457,0.296,2.402,0.487c-3.017-3.82,0.227-5.857,1.57-8.398
			c0.484,0.28,0.898,0.52,1.492,0.862c0.124-0.915,0.222-1.639,0.32-2.361c1.275,3.028,2.631,6.001,4.639,8.436
			c2.178,2.641,4.908,4.843,7.513,7.104c0.956,0.83,2.215,0.861,2.932-0.508c0.684-1.309,0.157-2.274-1.158-2.744
			c-2.053-0.731-4.054-1.408-5.283-3.477c-1.522-2.561-3.157-5.063-4.886-7.489c-1.57-2.203-1.7-4.446-1.046-6.999
			c1.061-4.142,1.871-8.347,2.819-12.519c0.174-0.761,0.5-1.486,0.853-2.512c0.663,0.815,1.146,1.425,1.644,2.022
			c2.716,3.26,5.434,6.518,8.154,9.773c0.812,0.972,1.789,1.415,2.735,0.311c1.02-1.19,0.105-2.212-0.836-2.664
			c-4.122-1.982-5.901-5.788-7.813-9.427c0.879-1.073,1.683-2.054,2.702-3.298c0.588,1.118,0.884,1.766,1.254,2.368
			c2.776,4.526,5.289,9.294,10.375,11.783c0.576,0.281,1.237,0.671,1.811,0.603c0.725-0.087,1.4-0.592,2.097-0.916
			c-0.573-0.499-1.077-1.146-1.738-1.462c-0.885-0.422-2.051-0.362-2.82-0.903c-3.396-2.388-5.437-5.755-6.71-9.713
			c0.373-0.078,0.605-0.078,0.787-0.174c0.628-0.329,1.238-0.691,1.855-1.041c-0.475-0.548-0.885-1.177-1.441-1.62
			c-0.611-0.486-1.332-0.866-2.054-1.18c-1.781-0.772-2.046-2.078-1.277-3.661c1.052-2.166,2.118-4.335,3.376-6.382
			c0.3-0.485,1.411-0.743,2.102-0.669c2.414,0.262,4.794,0.907,7.209,1.053c4.25,0.258,8.393-2.634,12.789-0.544
			c0.157,0.075,1.176-1.172,1.385-1.917c0.099-0.35-0.795-1.412-1.209-1.396c-2.15,0.084-4.342,0.199-6.426,0.697
			c-5.262,1.258-9.926,0.014-14.336-2.674c-0.03-0.235-0.061-0.47-0.091-0.705c1.703-0.492,3.405-0.983,5.108-1.475
			c-0.09-0.297-0.18-0.594-0.27-0.891c-1.869,0.309-3.737,0.619-5.592,0.925c-1.725-3.931-0.58-6.623,3.701-8.544
			c0.838-0.375,2.034-0.955,2.646-0.636c1.763,0.918,3.236,0.286,4.727-0.377c0.59-0.263,0.988-0.956,1.474-1.453
			c-0.697-0.231-1.449-0.761-2.083-0.644c-3.762,0.692-7.496,1.534-11.594,2.4c0.229-1.502,0.743-3.318,0.714-5.125
			c-0.028-1.739,0.817-1.619,2.005-1.625c0.979-0.004,1.958-0.291,2.938-0.453c-0.027-0.338-0.054-0.677-0.08-1.016
			c-1.744-0.14-3.488-0.281-5.358-0.431c0.534-2.61,2.132-2.417,3.328-2.078c1.18-0.991,2.368-1.571,2.905-2.52
			c1.588-2.805,3.85-2.17,6.193-1.566c1.26,0.324,2.563,0.975,3.77,0.833c0.866-0.102,1.761-1.174,2.31-2.028
			c0.164-0.255-0.675-1.629-1.264-1.813c-2.845-0.881-5.787-1.447-8.646-2.288c-2.445-0.72-4.547-0.885-6.53,1.261
			c-0.805,0.871-2.757,1.716-3.589,1.319c-2.014-0.96-3.719-2.608-5.461-4.082c-0.737-0.624-1.255-1.506-2.076-2.525
			c0.328-1.578,0.89-3.52,1.1-5.499c0.204-1.91,0.045-3.858,0.045-5.776c-3.001-0.114-5.192,0.746-6.56,3.106
			c-0.657,1.136-1.12,2.385-1.672,3.583L289.35,134.77z M146.15,282.874c-0.709-0.247-2.107-0.813-3.55-1.217
			c-2.77-0.777-5.565-1.464-8.351-2.188c-3.414-0.886-6.968-1.354-9.987-3.405c-1.13-0.768-2.181-1.783-3.43-2.219
			c-3.95-1.377-7.941-2.67-11.991-3.701c-1.516-0.387-2.298-1.076-3.085-2.328c-2.51-3.993-5.179-7.875-9.587-10.105
			c-1.989-1.007-3.877-2.219-5.884-3.186c-1.337-0.644-2.838-0.941-4.204-1.535c-1.76-0.764-3.696-1.386-5.124-2.585
			c-1.776-1.492-3.059-3.559-4.648-5.292c-2.146-2.34-4.856-4.308-6.471-6.956c-2.71-4.448-5.131-9.05-6.396-14.302
			c-1.715-7.124-5.04-13.669-9.544-19.53c-1.378-1.793-3.365-3.207-3.001-5.936c0.507-3.802-0.282-7.416-1.368-11.093
			c-0.908-3.074-1.005-6.398-1.351-9.623c-0.143-1.335-0.221-2.749,0.06-4.042c0.717-3.305,1.914-6.464,1.089-10.018
			c-0.424-1.825-0.667-3.166-3.078-2.696c0.225-0.521,0.313-0.987,0.45-1.001c2.775-0.292,2.63-2.547,2.769-4.38
			c0.089-1.176-0.53-2.389-0.679-3.604c-0.099-0.807,0.01-1.655,0.137-2.468c0.16-1.027,0.534-2.027,0.639-3.057
			c0.32-3.142,0.554-6.293,0.874-10.044c1.332,1.662,2.19,2.712,3.024,3.782c0.802,1.03,1.399,0.57,2.079-0.178
			c0.755-0.829,0.761-1.463-0.189-2.132c-0.993-0.698-1.969-1.429-2.885-2.222c-1.775-1.537-1.366-6.274,0.767-7.245
			c3.398-1.547,6.858-3.004,10.396-4.185c5.701-1.902,11.464-2.237,17.161,0.201c0.523,0.224,1.122,0.354,1.69,0.37
			c1.443,0.038,2.907-1.422,2.742-2.808c-0.188-1.575-1.259-2.185-2.769-2.107c-2.077,0.106-4.151,0.284-6.229,0.333
			c-5.196,0.123-10.405,0.019-15.587,0.355c-2.422,0.157-5.237-0.135-7.098,2.404c1.172-3.242,2.606-6.291,3.954-9.378
			c2.349-5.385,6.096-9.747,10.161-13.853c1.759-1.777,3.904-3.185,5.576-5.031c1.726-1.905,3.469-3.625,6.015-4.296
			c3.046-0.802,6.067-2.018,9.157-2.24c3.24-0.233,6.614,0.213,9.8,0.935c1.52,0.343,2.721,2.035,4.103,3.068
			c0.84,0.628,1.949,1.726,2.729,0.376c0.494-0.856,0.377-2.364-0.021-3.357c-0.435-1.085-1.432-1.995-2.32-2.839
			c-1.947-1.851-4.335-2.939-7.002-2.93c-3.073,0.011-6.164,0.677-9.214,0.496c-3.917-0.233-7.429,0.348-10.516,2.876
			c-0.272,0.223-0.716,0.235-1.578,0.496c0.925-1.046,1.543-1.654,2.054-2.342c0.835-1.125,1.634-2.28,2.385-3.462
			c0.501-0.789,0.75-1.781,1.369-2.44c0.828-0.881,1.866-1.587,2.884-2.264c2.417-1.606,4.888-3.133,7.305-4.739
			c0.472-0.314,0.801-0.845,1.196-1.275c-2.195,0.352-4.092,0.96-5.926,1.719c-1.521,0.628-3.337,1.096-4.374,2.229
			c-2.594,2.834-5.937,4.167-9.304,5.504c-0.252-2-0.93-4.229,2.439-4.765c-0.719-0.543-1.123-0.849-1.424-1.077
			c1.917-3.592,3.415-7.136,3.256-11.099c-0.056-1.387-0.55-2.837-1.188-4.083c-0.287-0.561-1.418-0.688-2.166-1.012
			c-0.035,0.823-0.436,1.983-0.042,2.41c1.691,1.832,1.549,3.864,0.927,5.916c-0.661,2.179-1.578,4.281-2.4,6.461
			c-0.688-0.406-1.133-0.669-1.978-1.167c1.679,4.489-1.689,5.754-3.833,7.664c-0.486-0.396-0.838-0.682-1.237-1.007
			c-0.371,0.725-0.656,1.284-1.123,2.198c0.389-7.543-3.617-12.854-7.286-18.287c-0.757-1.121-1.914-1.421-2.953-0.423
			c-1.134,1.09-0.894,2.324,0.39,3.097c2.137,1.288,3.662,2.945,4.357,5.401c0.593,2.097,1.458,4.116,2.076,6.208
			c0.868,2.937,1.476,5.792-0.482,8.713c-1.691,2.521-2.911,5.357-4.354,8.046c-0.937,1.746-1.899,3.478-3.111,5.692
			c-0.599-1.446-0.882-2.184-1.206-2.904c-1.685-3.734-3.331-7.487-5.116-11.173c-0.315-0.651-1.169-1.149-1.887-1.443
			c-0.267-0.109-1.246,0.603-1.224,0.888c0.061,0.795,0.249,1.821,0.789,2.301c3.359,2.981,3.939,7.061,4.834,11.023
			c-1.264,0.701-2.345,1.3-3.602,1.997c-0.192-0.959-0.277-1.677-0.481-2.358c-1.508-5.009-2.604-10.232-6.817-13.905
			c-0.638-0.556-1.386-1.086-2.175-1.333c-0.475-0.148-1.129,0.274-1.703,0.44c0.232,0.616,0.369,1.704,0.711,1.773
			c2.696,0.545,3.971,2.5,4.814,4.759c0.983,2.635,1.714,5.365,2.445,7.703c-1.479,0.431-2.351,0.685-3.223,0.939
			c0.489,0.782,0.949,1.584,1.477,2.339c0.329,0.47,0.7,0.947,1.152,1.288c1.738,1.311,1.282,2.734,0.176,4.083
			c-1.272,1.552-2.696,2.98-4.015,4.496c-1.24,1.426-2.228,1.351-3.784,0.146c-1.489-1.152-3.47-1.744-5.311-2.349
			c-4.258-1.401-9.24,0.331-13.131-2.957c-0.128-0.108-1.43,0.845-1.814,1.516c-0.178,0.311,0.43,1.539,0.864,1.652
			c1.94,0.507,3.945,1.042,5.93,1.056c5.594,0.037,9.878,2.507,13.539,6.419c-1.451,2.221-4.064-0.871-5.694,1.629
			c2.254,0.244,4.152,0.45,6.015,0.651c0.284,4.607-1.521,6.722-6.127,7.235c-0.85,0.095-2.039,0.31-2.531-0.132
			c-1.457-1.308-3.011-1.201-4.64-0.825c-0.642,0.147-1.211,0.613-1.813,0.934c0.588,0.431,1.121,1.089,1.774,1.246
			c1.441,0.344,2.938,0.495,4.421,0.61c1.214,0.094,2.446,0.089,3.662,0.008c1.184-0.08,2.357-0.313,4.043-0.551
			c-1.082,2.599-1.982,4.761-2.831,6.8c-1.828,0.146-3.352-1.933-5.284,0.202c1.943,0.692,3.594,1.281,5.395,1.923
			c-1.319,2.175-2.657,2.082-4.044,0.917c-1.676,1.096-3.229,2.156-4.836,3.125c-0.318,0.191-0.886,0.145-1.272,0.012
			c-1.155-0.395-2.309-0.821-3.404-1.356c-1.166-0.57-2.214-1.649-3.409-1.812c-0.929-0.126-2.069,0.724-2.95,1.366
			c-0.154,0.112,0.303,1.672,0.832,2.008c2.641,1.678,5.421,3.133,8.108,4.741c1.984,1.187,3.826,1.694,6.066,0.368
			c1.059-0.627,3.189-1.06,3.826-0.478c1.739,1.591,2.977,3.744,4.341,5.724c0.515,0.747,0.833,1.629,1.348,2.666
			c-1.722,3.174-3.694,6.596-4.086,10.573c3.333,1.27,5.867,0.411,8.414-2.699c0.269,1.611,0.477,2.591,0.581,3.582
			c0.067,0.638-0.102,1.301-0.024,1.936c0.646,5.278,1.479,10.539,1.94,15.832c0.304,3.493,0.078,7.031,0.107,10.549
			c0.005,0.65,0.078,1.301,0.147,1.948c0.617,5.766,2.939,10.826,6.324,15.471c1.191,1.635,2.547,3.259,3.268,5.105
			c2.349,6.017,4.384,12.155,6.649,18.206c1.529,4.084,4.011,7.454,7.732,9.911c2.584,1.707,5.143,3.515,7.44,5.58
			c5.738,5.158,11.281,10.533,16.988,15.729c2.213,2.014,4.637,3.8,7,5.645c1.556,1.214,3.191,2.327,4.758,3.526
			c0.736,0.563,1.306,1.403,2.107,1.812c6.987,3.561,14.789,5.179,21.656,9.038c0.063,0.036,0.134,0.059,0.203,0.079
			c5.594,1.677,11.231,3.227,16.757,5.103c1.719,0.583,3.075,2.161,4.71,3.081c2.099,1.181,3.149,3.727,5.857,4.161
			c1.448,0.232,2.801,1.058,4.3,1.656c-0.227,0.569-0.308,1.007-0.545,1.331c-2.29,3.125-4.519,6.302-6.951,9.313
			c-1.19,1.474-1.026,2.361,0.512,3.275c2.286-1.502,4.069-3.272,4.418-6.127c0.053-0.435,0.395-1.004,0.767-1.203
			c3.659-1.956,7.333-3.887,11.059-5.711c0.504-0.246,1.314,0.168,1.986,0.222c1.683,0.136,3.498,0.683,5.02,0.239
			c1.726-0.502,3-0.782,3.964,0.851c1.486-0.594,2.951-1.764,4.114-1.516c2.19,0.467,3.671-0.575,5.43-1.287
			c3.997-1.617,8.078-3.024,12.083-4.623c1.739-0.693,3.601-1.051,4.68-3.115c0.73-1.399,1.824-2.895,4.267-2.565
			c2.249,0.304,4.639-0.438,6.989-0.722c0.083-1.766,0.484-2.506,2.178-3.019c1.136-0.343,1.351-0.755,0.975-1.862
			c-0.13-0.385,0.405-1.403,0.788-1.495c7.183-1.712,14.05-4.875,20.519-4.729c3.144-2.165,5.511-3.794,8.26-5.688
			c-0.747-0.258-1.445-0.646-2.173-0.712c-0.901-0.08-1.838,0.042-2.74,0.192c-1.579,0.264-3.635,0.102-4.612,1.036
			c-2.071,1.979-4.402,2.761-7.058,3.137c-1.069,0.152-2.178,0.273-3.174,0.655c-3.831,1.47-7.69,2.475-11.826,1.475
			c-0.491-0.118-1.036,0-1.555-0.026c-1.296-0.067-2.631,0.014-3.872-0.288c-1.021-0.247-1.929-0.959-3.187-1.624
			c-0.585-1.823,1.392-2.418,2.707-3.563c-0.673-0.36-1.153-0.617-1.372-0.734c0.021-3.554-2.588-5.446-4.723-6.967
			c-7.328-5.219-15.313-6.582-24.284-2.179c3.117-0.371,5.661-0.787,8.222-0.942c1.923-0.117,3.867,0.086,5.799,0.188
			c0.211,0.011,0.402,0.3,0.61,0.446c0.599,0.421,1.159,0.928,1.813,1.234c1.415,0.664,3.444,0.649,3.137,3.363
			c-0.663-0.753-1.171-1.329-1.65-1.872c-1.08,0-2.13,0.001-3.18,0c-1.225-0.002-2.848-0.513-3.603,0.081
			c-2.949,2.321-6.375,3.153-9.879,3.915c-0.067,0.015-0.124,0.074-0.188,0.109c-2.47,1.39-5.285,2.139-7.863,1.306
			c-2.277-0.736-3.991-0.354-5.941,0.512c-0.585,0.261-1.44,0.161-2.094-0.034c-1.266-0.378-2.477-0.941-3.669-1.412
			c-0.888,2.876-1.24,5.539-3.878,7.167c-0.289-0.526-0.416-1.146-0.77-1.331c-1.006-0.525-2.082-1.071-3.178-1.198
			c-0.478-0.056-1.385,0.804-1.551,1.4c-0.431,1.547-0.539,3.182-0.822,4.772c-0.071,0.397-0.22,0.863-0.497,1.127
			C149.182,280.223,147.933,281.29,146.15,282.874z M266.495,246.068c-0.191-0.376-0.383-0.752-0.574-1.129
			c-0.825,0.442-1.673,0.852-2.446,1.369c-0.098,0.065,0.191,0.709,0.302,1.084C264.683,246.951,265.589,246.509,266.495,246.068z"
			/>
		<path fill-rule="evenodd" clip-rule="evenodd" d="M146.15,282.874c1.783-1.584,3.032-2.65,4.219-3.78
			c0.276-0.264,0.426-0.729,0.497-1.127c0.283-1.591,0.391-3.226,0.822-4.772c0.166-0.597,1.073-1.456,1.551-1.4
			c1.096,0.127,2.172,0.673,3.178,1.198c0.354,0.186,0.481,0.805,0.77,1.331c2.638-1.628,2.99-4.291,3.878-7.167
			c1.192,0.471,2.403,1.034,3.669,1.412c0.653,0.195,1.509,0.295,2.094,0.034c1.95-0.865,3.664-1.248,5.941-0.512
			c2.578,0.833,5.393,0.084,7.863-1.306c0.063-0.035,0.12-0.095,0.188-0.109c3.504-0.762,6.93-1.594,9.879-3.915
			c0.755-0.594,2.378-0.083,3.603-0.081c1.05,0.001,2.1,0,3.18,0c0.479,0.543,0.987,1.119,1.65,1.872
			c0.308-2.714-1.722-2.699-3.137-3.363c-0.653-0.307-1.214-0.813-1.813-1.234c-0.208-0.146-0.399-0.436-0.61-0.446
			c-1.932-0.102-3.876-0.305-5.799-0.188c-2.561,0.155-5.104,0.571-8.222,0.942c8.972-4.403,16.956-3.04,24.284,2.179
			c2.135,1.521,4.743,3.413,4.723,6.967c0.219,0.117,0.699,0.374,1.372,0.734c-1.315,1.145-3.292,1.739-2.707,3.563
			c1.258,0.665,2.166,1.377,3.187,1.624c1.241,0.302,2.576,0.221,3.872,0.288c0.519,0.026,1.063-0.092,1.555,0.026
			c4.136,1,7.995-0.005,11.826-1.475c0.996-0.382,2.104-0.503,3.174-0.655c2.655-0.376,4.986-1.157,7.058-3.137
			c0.978-0.935,3.033-0.772,4.612-1.036c0.902-0.15,1.839-0.272,2.74-0.192c0.728,0.065,1.426,0.454,2.173,0.712
			c-2.749,1.894-5.116,3.522-8.26,5.688c-6.469-0.146-13.336,3.018-20.519,4.729c-0.383,0.092-0.918,1.11-0.788,1.495
			c0.376,1.107,0.161,1.52-0.975,1.862c-1.693,0.513-2.095,1.253-2.178,3.019c-2.351,0.284-4.74,1.025-6.989,0.722
			c-2.442-0.329-3.536,1.166-4.267,2.565c-1.079,2.064-2.94,2.422-4.68,3.115c-4.005,1.599-8.086,3.006-12.083,4.623
			c-1.759,0.712-3.239,1.754-5.43,1.287c-1.163-0.248-2.628,0.922-4.114,1.516c-0.964-1.633-2.238-1.353-3.964-0.851
			c-1.522,0.443-3.336-0.104-5.02-0.239c-0.672-0.054-1.482-0.468-1.986-0.222c-3.726,1.824-7.4,3.755-11.059,5.711
			c-0.373,0.199-0.714,0.769-0.767,1.203c-0.349,2.854-2.132,4.625-4.418,6.127c-1.539-0.914-1.702-1.802-0.512-3.275
			c2.432-3.011,4.662-6.188,6.951-9.313c0.237-0.324,0.318-0.762,0.545-1.331c-1.499-0.599-2.852-1.424-4.3-1.656
			c-2.708-0.435-3.758-2.98-5.857-4.161c-1.635-0.92-2.991-2.498-4.71-3.081c-5.526-1.876-11.164-3.426-16.757-5.103
			c-0.069-0.021-0.14-0.043-0.203-0.079c-6.868-3.859-14.669-5.478-21.656-9.038c-0.801-0.408-1.371-1.248-2.107-1.812
			c-1.567-1.199-3.203-2.313-4.758-3.526c-2.363-1.845-4.787-3.631-7-5.645c-5.707-5.195-11.25-10.57-16.988-15.729
			c-2.298-2.065-4.856-3.873-7.44-5.58c-3.721-2.457-6.203-5.827-7.732-9.911c-2.265-6.051-4.3-12.189-6.649-18.206
			c-0.721-1.847-2.077-3.471-3.268-5.105c-3.385-4.645-5.707-9.705-6.324-15.471c-0.069-0.647-0.142-1.298-0.147-1.948
			c-0.029-3.518,0.196-7.056-0.107-10.549c-0.461-5.293-1.294-10.554-1.94-15.832c-0.078-0.635,0.091-1.298,0.024-1.936
			c-0.104-0.991-0.312-1.971-0.581-3.582c-2.547,3.11-5.082,3.969-8.414,2.699c0.392-3.977,2.364-7.399,4.086-10.573
			c-0.515-1.036-0.833-1.918-1.348-2.666c-1.364-1.98-2.602-4.133-4.341-5.724c-0.636-0.582-2.767-0.149-3.826,0.478
			c-2.24,1.327-4.082,0.819-6.066-0.368c-2.687-1.608-5.468-3.063-8.108-4.741c-0.528-0.335-0.985-1.896-0.832-2.008
			c0.881-0.642,2.021-1.492,2.95-1.366c1.194,0.162,2.243,1.241,3.409,1.812c1.095,0.536,2.249,0.962,3.404,1.356
			c0.386,0.132,0.955,0.179,1.272-0.012c1.607-0.969,3.161-2.029,4.836-3.125c1.387,1.165,2.726,1.258,4.044-0.917
			c-1.801-0.642-3.452-1.23-5.395-1.923c1.932-2.134,3.456-0.056,5.284-0.202c0.849-2.039,1.749-4.201,2.831-6.8
			c-1.686,0.238-2.859,0.471-4.043,0.551c-1.216,0.082-2.448,0.086-3.662-0.008c-1.483-0.115-2.98-0.266-4.421-0.61
			c-0.653-0.156-1.187-0.815-1.774-1.246c0.602-0.321,1.171-0.786,1.813-0.934c1.629-0.375,3.184-0.482,4.64,0.825
			c0.493,0.442,1.681,0.227,2.531,0.132c4.606-0.514,6.412-2.628,6.127-7.235c-1.863-0.202-3.761-0.407-6.015-0.651
			c1.629-2.5,4.243,0.592,5.694-1.629c-3.66-3.913-7.945-6.383-13.539-6.419c-1.985-0.013-3.99-0.548-5.93-1.056
			c-0.435-0.113-1.042-1.342-0.864-1.652c0.384-0.671,1.687-1.624,1.814-1.516c3.892,3.288,8.873,1.556,13.131,2.957
			c1.841,0.605,3.822,1.197,5.311,2.349c1.557,1.206,2.544,1.28,3.784-0.146c1.319-1.516,2.743-2.943,4.015-4.496
			c1.106-1.349,1.562-2.772-0.176-4.083c-0.452-0.341-0.824-0.818-1.152-1.288c-0.528-0.755-0.988-1.557-1.477-2.339
			c0.872-0.254,1.743-0.508,3.223-0.939c-0.73-2.338-1.461-5.068-2.445-7.703c-0.843-2.259-2.118-4.214-4.814-4.759
			c-0.342-0.069-0.479-1.157-0.711-1.773c0.574-0.166,1.228-0.588,1.703-0.44c0.789,0.247,1.537,0.777,2.175,1.333
			c4.213,3.673,5.309,8.896,6.817,13.905c0.205,0.681,0.289,1.398,0.481,2.358c1.257-0.696,2.337-1.295,3.602-1.997
			c-0.896-3.962-1.475-8.042-4.834-11.023c-0.541-0.48-0.728-1.505-0.789-2.301c-0.022-0.286,0.958-0.997,1.224-0.888
			c0.718,0.294,1.572,0.792,1.887,1.443c1.785,3.686,3.431,7.439,5.116,11.173c0.324,0.72,0.607,1.458,1.206,2.904
			c1.212-2.214,2.175-3.946,3.111-5.692c1.443-2.689,2.663-5.525,4.354-8.046c1.958-2.921,1.35-5.776,0.482-8.713
			c-0.618-2.091-1.483-4.11-2.076-6.208c-0.695-2.456-2.22-4.113-4.357-5.401c-1.283-0.773-1.523-2.007-0.39-3.097
			c1.039-0.998,2.196-0.698,2.953,0.423c3.669,5.433,7.675,10.743,7.286,18.287c0.467-0.914,0.752-1.473,1.123-2.198
			c0.399,0.325,0.751,0.611,1.237,1.007c2.144-1.91,5.512-3.174,3.833-7.664c0.845,0.499,1.29,0.761,1.978,1.167
			c0.822-2.18,1.739-4.282,2.4-6.461c0.622-2.052,0.764-4.084-0.927-5.916c-0.394-0.427,0.006-1.587,0.042-2.41
			c0.748,0.324,1.879,0.451,2.166,1.012c0.638,1.246,1.133,2.696,1.188,4.083c0.159,3.962-1.339,7.506-3.256,11.099
			c0.302,0.229,0.706,0.534,1.424,1.077c-3.369,0.536-2.691,2.765-2.439,4.765c3.368-1.337,6.71-2.669,9.304-5.504
			c1.037-1.133,2.853-1.601,4.374-2.229c1.834-0.759,3.731-1.367,5.926-1.719c-0.395,0.431-0.724,0.961-1.196,1.275
			c-2.417,1.606-4.888,3.133-7.305,4.739c-1.018,0.677-2.056,1.382-2.884,2.264c-0.619,0.659-0.868,1.651-1.369,2.44
			c-0.751,1.182-1.549,2.337-2.385,3.462c-0.511,0.688-1.129,1.296-2.054,2.342c0.862-0.261,1.306-0.273,1.578-0.496
			c3.086-2.528,6.598-3.109,10.516-2.876c3.05,0.182,6.141-0.484,9.214-0.496c2.667-0.009,5.056,1.079,7.002,2.93
			c0.888,0.844,1.885,1.754,2.32,2.839c0.397,0.993,0.515,2.5,0.021,3.357c-0.78,1.35-1.889,0.252-2.729-0.376
			c-1.381-1.033-2.583-2.725-4.103-3.068c-3.186-0.721-6.56-1.167-9.8-0.935c-3.09,0.222-6.111,1.438-9.157,2.24
			c-2.546,0.67-4.29,2.391-6.015,4.296c-1.671,1.846-3.817,3.254-5.576,5.031c-4.065,4.106-7.812,8.468-10.161,13.853
			c-1.347,3.087-2.781,6.137-3.954,9.378c1.86-2.539,4.676-2.247,7.098-2.404c5.182-0.336,10.391-0.232,15.587-0.355
			c2.078-0.049,4.153-0.226,6.229-0.333c1.51-0.077,2.582,0.532,2.769,2.107c0.165,1.386-1.298,2.846-2.742,2.808
			c-0.568-0.015-1.167-0.146-1.69-0.37c-5.697-2.438-11.46-2.103-17.161-0.201c-3.539,1.181-6.999,2.638-10.396,4.185
			c-2.133,0.971-2.542,5.708-0.767,7.245c0.916,0.793,1.892,1.524,2.885,2.222c0.95,0.668,0.944,1.303,0.189,2.132
			c-0.68,0.748-1.277,1.208-2.079,0.178c-0.833-1.07-1.692-2.12-3.024-3.782c-0.319,3.751-0.554,6.902-0.874,10.044
			c-0.105,1.03-0.479,2.029-0.639,3.057c-0.126,0.813-0.236,1.662-0.137,2.468c0.149,1.215,0.768,2.428,0.679,3.604
			c-0.139,1.833,0.006,4.089-2.769,4.38c-0.136,0.014-0.225,0.48-0.45,1.001c2.41-0.47,2.654,0.871,3.078,2.696
			c0.825,3.553-0.372,6.712-1.089,10.018c-0.281,1.293-0.203,2.708-0.06,4.042c0.346,3.225,0.443,6.549,1.351,9.623
			c1.086,3.677,1.875,7.291,1.368,11.093c-0.364,2.729,1.624,4.143,3.001,5.936c4.504,5.861,7.829,12.406,9.544,19.53
			c1.265,5.252,3.686,9.854,6.396,14.302c1.614,2.648,4.325,4.616,6.471,6.956c1.589,1.733,2.872,3.8,4.648,5.292
			c1.428,1.199,3.364,1.821,5.124,2.585c1.366,0.594,2.867,0.892,4.204,1.535c2.007,0.967,3.895,2.179,5.884,3.186
			c4.408,2.23,7.077,6.112,9.587,10.105c0.787,1.252,1.569,1.941,3.085,2.328c4.05,1.031,8.041,2.324,11.991,3.701
			c1.25,0.436,2.3,1.451,3.43,2.219c3.019,2.051,6.573,2.52,9.987,3.405c2.785,0.724,5.581,1.41,8.351,2.188
			C144.043,282.061,145.44,282.626,146.15,282.874z M70.728,82.5c-0.76-0.515-1.515-1.027-2.262-1.534
			c-4.276,4.657-4.68,5.489-3.817,8.098C66.755,86.79,68.815,84.564,70.728,82.5z M35.069,158.002
			c1.574,0.091,2.59,0.149,3.813,0.22c-0.194-0.935-0.344-1.654-0.557-2.677C37.211,156.385,36.38,157.013,35.069,158.002z"/>
		<path fill-rule="evenodd" clip-rule="evenodd" d="M289.345,134.77c0.552-1.198,1.015-2.447,1.672-3.583
			c1.367-2.361,3.559-3.22,6.56-3.106c0,1.917,0.159,3.866-0.045,5.776c-0.21,1.979-0.771,3.921-1.1,5.499
			c0.821,1.019,1.339,1.901,2.076,2.525c1.742,1.474,3.447,3.121,5.461,4.082c0.832,0.397,2.784-0.448,3.589-1.319
			c1.983-2.146,4.085-1.98,6.53-1.261c2.858,0.841,5.801,1.407,8.646,2.288c0.589,0.183,1.428,1.558,1.264,1.813
			c-0.549,0.854-1.443,1.926-2.31,2.028c-1.207,0.142-2.51-0.509-3.77-0.833c-2.344-0.604-4.605-1.239-6.193,1.566
			c-0.537,0.949-1.726,1.528-2.905,2.52c-1.196-0.339-2.794-0.532-3.328,2.078c1.87,0.15,3.614,0.291,5.358,0.431
			c0.026,0.338,0.053,0.677,0.08,1.016c-0.979,0.162-1.958,0.448-2.938,0.453c-1.188,0.005-2.033-0.115-2.005,1.625
			c0.029,1.807-0.484,3.623-0.714,5.125c4.098-0.867,7.832-1.708,11.594-2.4c0.634-0.117,1.386,0.413,2.083,0.644
			c-0.485,0.497-0.884,1.19-1.474,1.453c-1.49,0.663-2.964,1.295-4.727,0.377c-0.612-0.318-1.809,0.261-2.646,0.636
			c-4.281,1.921-5.426,4.613-3.701,8.544c1.854-0.307,3.723-0.616,5.592-0.925c0.09,0.297,0.18,0.594,0.27,0.891
			c-1.703,0.492-3.405,0.983-5.108,1.475c0.03,0.235,0.061,0.47,0.091,0.705c4.41,2.688,9.074,3.932,14.336,2.674
			c2.084-0.498,4.275-0.613,6.426-0.697c0.414-0.017,1.308,1.046,1.209,1.396c-0.209,0.745-1.228,1.992-1.385,1.917
			c-4.396-2.09-8.539,0.802-12.789,0.544c-2.415-0.146-4.795-0.791-7.209-1.053c-0.69-0.074-1.802,0.184-2.102,0.669
			c-1.258,2.047-2.324,4.216-3.376,6.382c-0.769,1.583-0.504,2.889,1.277,3.661c0.722,0.313,1.442,0.693,2.054,1.18
			c0.557,0.443,0.967,1.072,1.441,1.62c-0.617,0.35-1.228,0.712-1.855,1.041c-0.182,0.096-0.414,0.096-0.787,0.174
			c1.273,3.958,3.313,7.325,6.71,9.713c0.77,0.541,1.936,0.481,2.82,0.903c0.661,0.316,1.165,0.963,1.738,1.462
			c-0.696,0.324-1.372,0.829-2.097,0.916c-0.573,0.068-1.234-0.321-1.811-0.603c-5.086-2.489-7.599-7.257-10.375-11.783
			c-0.37-0.603-0.666-1.25-1.254-2.368c-1.02,1.244-1.823,2.225-2.702,3.298c1.911,3.639,3.69,7.444,7.813,9.427
			c0.941,0.452,1.855,1.474,0.836,2.664c-0.946,1.104-1.924,0.661-2.735-0.311c-2.721-3.256-5.438-6.514-8.154-9.773
			c-0.497-0.598-0.98-1.207-1.644-2.022c-0.353,1.025-0.679,1.751-0.853,2.512c-0.948,4.172-1.759,8.377-2.819,12.519
			c-0.654,2.553-0.524,4.796,1.046,6.999c1.729,2.426,3.363,4.929,4.886,7.489c1.229,2.068,3.23,2.745,5.283,3.477
			c1.315,0.47,1.842,1.436,1.158,2.744c-0.717,1.369-1.976,1.338-2.932,0.508c-2.604-2.261-5.335-4.463-7.513-7.104
			c-2.008-2.435-3.363-5.407-4.639-8.436c-0.099,0.723-0.196,1.446-0.32,2.361c-0.594-0.343-1.008-0.582-1.492-0.862
			c-1.344,2.541-4.587,4.578-1.57,8.398c-0.945-0.191-1.444-0.293-2.402-0.487c-0.126,2.789-0.5,5.589-0.269,8.339
			c0.11,1.303,1.442,2.476,2.097,3.77c0.394,0.777,1.023,2.026,0.713,2.45c-0.725,0.984-1.664,0.505-2.513-0.367
			c-2.078-2.14-2.612-4.736-2.587-7.563c0.016-1.743,0.003-3.486,0.003-5.785c-3.456,6.605-6.3,13.16-11.596,17.96
			c-0.274-0.185-0.55-0.369-0.825-0.553c2.114-3.166,4.229-6.333,6.409-9.597c-2.065-1.356-1.596-2.605-0.279-3.854
			c0.263-0.248,0.552-0.497,0.729-0.804c3.452-5.964,6.179-12.145,5.761-19.271c-0.074-1.263-0.011-2.533-0.011-3.876
			c-0.397,0.113-0.628,0.123-0.646,0.191c-1.084,4.005-4.299,6.45-7.082,9.051c-1.683,1.572-4.175,2.403-6.433,3.201
			c-2.52,0.892-5.445,0.894-7.723,2.143c-2.878,1.577-5.536,1.486-8.269,0.411c-1.632-0.642-3.198-1.698-4.466-2.912
			c-0.595-0.569-0.413-1.949-0.584-2.962c0.889-0.104,1.856-0.481,2.649-0.253c1.714,0.494,3.359,1.905,4.995,1.849
			c3.187-0.109,6.484-0.579,9.479-1.633c2.855-1.005,5.381-2.947,8.058-4.468c2.425-1.377,3.79-3.538,4.972-6.012
			c1.04-2.176,2.738-4.025,3.935-6.139c2.884-5.093,5.298-10.36,6.224-16.241c0.603-3.829,1.596-7.597,2.414-11.391
			c-0.193-0.216-0.387-0.432-0.58-0.648c-0.254,0.559-0.605,1.094-0.747,1.68c-0.77,3.186-3.631,3.806-6.055,4.57
			c-6.05,1.909-12.212,3.46-18.313,5.204c-0.816,0.233-1.531,0.795-2.324,1.134c-1.528,0.652-3.012,0.082-3.39-1.257
			c-0.395-1.396,0.561-3.063,1.977-3.386c0.417-0.095,0.873-0.121,1.299-0.069c6.421,0.784,12.161-1.055,17.381-4.653
			c2.78-1.917,5.308-4.209,8.131-6.054c2.496-1.63,2.495-3.961,2.49-6.518c-2.085-0.805-4.219-1.591-6.317-2.463
			c-0.54-0.225-1.355-0.71-1.361-1.086c-0.011-0.633,0.42-1.377,0.887-1.861c0.184-0.191,1.037,0.069,1.454,0.332
			c1.245,0.783,2.425,1.668,4.081,2.222c-0.799-3.348-1.602-6.696-2.392-10.046c-0.115-0.487-0.401-1.107-0.217-1.463
			c1.028-1.983-0.299-3.373-1.023-4.971c-0.923-2.035-2.229-4.117-0.227-6.319c0.2-0.219,0.055-0.82-0.034-1.221
			c-0.597-2.685-1.151-5.382-1.872-8.033c-0.274-1.011-0.955-1.912-1.442-2.866c-0.663-1.299-1.273-2.628-1.994-3.895
			c-0.512-0.899-1.183-1.707-1.758-2.572c-1.11-1.672-2.203-3.355-3.304-5.034c-0.22,0.025-0.438,0.049-0.657,0.074
			c0,2.674-0.191,5.365,0.04,8.019c0.488,5.598,1.202,11.177,1.812,16.765c0.063,0.571,0.284,1.316,0.02,1.691
			c-0.49,0.695-1.217,1.449-1.979,1.635c-0.402,0.098-1.234-0.864-1.592-1.504c-0.281-0.501-0.313-1.297-0.144-1.869
			c1.399-4.707,0.771-9.413,0.229-14.153c-0.247-2.166,0.04-4.387-0.051-6.577c-0.096-2.303-0.231-4.62-2.552-6.059
			c-0.479-0.297-1.047-1.147-0.936-1.581c0.542-2.132-0.8-3.394-1.922-4.786c-1.523-1.889-2.988-3.83-4.602-5.638
			c-1.116-1.25-4.148-0.596-5.198,0.705c-4.685,5.808-5.421,12.814-6.334,19.813c-0.089,0.681-1.215,1.733-1.853,1.728
			c-1.187-0.009-1.428-1.014-1.2-2.249c0.666-3.608,1.174-7.246,1.743-10.873c-0.181-0.099-0.361-0.198-0.543-0.297
			c-2.33,2.589-4.754,5.101-6.961,7.791c-1.717,2.093-3.16,4.41-4.731,6.623c-1.654,2.329-3.249,4.705-5.009,6.952
			c-0.727,0.929-1.718,1.785-2.774,2.267c-0.558,0.255-1.675-0.171-2.241-0.646c-0.459-0.384-0.827-1.451-0.613-1.949
			c0.516-1.202,1.172-2.537,2.167-3.307c3.603-2.786,7.031-5.714,9.852-9.318c0.527-0.674,1.315-1.143,1.857-1.808
			c1.522-1.871,3.406-3.4,3.877-6.1c0.354-2.031,1.624-3.898,2.444-5.856c0.231-0.553,0.313-1.168,0.463-1.755
			c-0.222-0.17-0.443-0.341-0.666-0.511c-3.162,3.046-6.314,6.103-9.492,9.133c-1.346,1.284-2.667,2.622-4.17,3.698
			c-0.437,0.313-2.062-0.088-2.108-0.349c-0.155-0.855-0.16-2.182,0.367-2.628c1.233-1.041,2.922-1.526,4.227-2.503
			c3.867-2.898,7.64-5.921,11.442-8.904c0.676-0.529,1.43-1.013,1.945-1.676c0.542-0.698,0.843-1.585,1.249-2.39
			c-0.181-0.089-0.362-0.178-0.543-0.267c-1.444,0.572-2.889,1.144-4.346,1.72c-0.674-2.34,0.051-3.448,2.366-3.903
			c0.898-0.177,1.786-0.41,2.678-0.618c-0.079-0.315-0.158-0.63-0.236-0.945c-1.99,0.519-4.035,0.886-5.952,1.599
			c-1.816,0.675-3.47,1.779-5.258,2.551c-0.587,0.253-1.368,0.058-2.061,0.068c0.429-0.535,0.747-1.288,1.304-1.568
			c3.015-1.518,6.088-2.918,9.309-4.439c-0.317-0.47-0.598-0.692-0.585-0.895c0.231-3.66-2.596-2.655-4.591-3.181
			c-4.532-1.194-8.688-0.033-12.87,1.498c-0.617,0.226-1.52-0.064-2.184-0.357c-0.273-0.121-0.514-1.125-0.339-1.302
			c0.506-0.511,1.199-1.05,1.875-1.136c1.492-0.189,3.033,0.016,4.529-0.161c3.551-0.418,7.086-0.966,11.323-1.558
			c-1.425-1.246-2.338-2.043-3.373-2.948c0.547-0.177,1.103-0.357,2.149-0.696c-2.236-1.929-4.114-3.67-6.118-5.251
			c-3.793-2.99-7.611-5.954-11.525-8.782c-1.073-0.776-2.521-1.039-3.804-1.521c-1.177-0.441-2.757-0.525-2.055-2.522
			c0.061-0.171-0.17-0.516-0.352-0.69c-2.784-2.674-5.654-5.184-9.684-5.826c-7.424-1.184-14.902-2.127-22.237-3.727
			c-7.217-1.573-14.425-1.623-21.706-1.334c-0.634,0.025-1.368-0.02-1.901-0.313c-4.303-2.367-8.666-2.099-13.088-0.443
			c-0.271,0.101-0.576,0.343-0.804,0.284c-0.708-0.182-1.387-0.478-2.077-0.729c0.385-0.677,0.627-1.771,1.18-1.961
			c3.052-1.05,6.137-2.087,9.292-2.729c3.382-0.688,6.854-0.93,10.287-1.374c0.43-0.055,0.904-0.052,1.274-0.24
			c3.355-1.703,6.81-1.041,10.284-0.548c2.473,0.351,5.015,0.328,7.445,0.851c5.557,1.196,11.017,2.884,16.605,3.868
			c3.878,0.683,7.589,1.567,11.126,3.292c0.476,0.232,1.36-0.502,1.952-0.358c1.592,0.387,3.294,0.738,4.657,1.581
			c5.284,3.271,10.453,6.729,15.904,10.272c0.102-0.733,0.187-1.35,0.263-1.906c0.807,0.546,1.626,1.101,2.445,1.656
			c-0.008-0.227-0.017-0.454-0.024-0.681c1.436-0.396,2.853-0.882,4.31-1.165c1.821-0.354,3.819-0.173,4.877-2.252
			c0.113-0.223,0.964-0.069,1.474-0.09c-0.096,0.478-0.029,1.215-0.313,1.392c-1.714,1.07-3.508,2.012-5.273,2.999
			c-0.355,0.198-0.704,0.408-1.057,0.612c0.063,0.208,0.125,0.417,0.188,0.626c1.393-0.37,2.785-0.739,4.606-1.222
			c-0.386,0.75-0.716,1.392-1.3,2.528c2.252-0.974,4.203-1.818,6.224-2.691c0.375,2.433-1.745,2.346-3.114,2.902
			c-1.524,0.619-3.114,1.074-4.677,1.601c-0.022,0.198-0.045,0.395-0.067,0.593c1.063,0.096,2.215,0.504,3.174,0.231
			c3.056-0.87,6.084-0.613,9.185-0.505c1.638,0.057,3.411-0.911,4.946-1.742c1.121-0.607,1.904-0.714,3.182-0.347
			c1.951,0.561,4.114,1.265,6.087-0.232c0.21-0.16,0.675-0.314,0.798-0.209c2.508,2.14,3.459-0.535,4.916-1.579
			c0.463-0.331,0.782-0.884,1.269-1.153c0.558-0.308,1.228-0.412,1.849-0.604c0.078,0.666,0.464,1.555,0.175,1.955
			c-0.846,1.168-1.892,2.224-3,3.157c-0.573,0.483-1.444,0.613-2.445,1.006c1.393,0.686,2.116,1.339,3.829,0.444
			c1.75-0.916,4.221-0.452,6.376-0.592c0.033,0.254,0.066,0.507,0.099,0.761c-1.847,0.663-3.694,1.326-5.764,2.069
			c0.897,0.878,2.614,1.413,1.148,2.703c-0.623,0.548-1.681,0.689-2.57,0.829c-1.638,0.258-3.305,0.333-4.943,0.588
			c-0.384,0.06-0.703,0.536-1.051,0.821c0.322,0.313,0.596,0.715,0.975,0.923c2.746,1.508,5.09,1.082,6.846-1.925
			c0.132,0.184,0.264,0.368,0.396,0.552c-0.316,0.552-0.505,1.404-0.974,1.605c-2.031,0.872-3.521,2.806-6.078,2.75
			c-1.16-0.026-2.341,0.898-3.508,1.389c0.957,2.787,2.633,3.637,7.511,4.378c-0.989-0.081-1.986-0.111-2.966-0.256
			c-1.068-0.158-2.121-0.422-3.294-0.443c1.653,2.138,3.796,3.555,6.339,4.423c0.582,0.199,1.398,0.262,1.688,0.679
			c2.75,3.953,7.057,4.154,11.182,4.589c1.072,0.113,2.249-0.767,3.786-0.926c-0.608,0.508-1.23,1.464-1.824,1.447
			c-2.564-0.071-5.138-0.318-7.672-0.723c-1.383-0.221-2.695-0.885-4.617-1.549c3.58,4.116,6.053,8.583,11.506,9.432
			c0.995,0.155,2.019,0.133,3.011,0.302c1.688,0.287,3.39,0.558,5.034,1.019c2.687,0.753,5.283,2.122,8.135,0.414
			c0.269-0.16,1.139,0.686,1.729,1.065c-0.12,0.327-0.241,0.654-0.361,0.981c-2.84-0.15-5.728-0.693-8.51-0.357
			c-4.045,0.488-6.816-2.805-10.549-2.955c-0.405-0.017-0.806-0.128-1.208-0.195c-0.079,0.197-0.157,0.395-0.236,0.592
			c1.02,0.461,2.039,0.923,3.059,1.385c-0.115,0.105-0.231,0.211-0.347,0.317c0.479,0.561,0.879,1.233,1.463,1.647
			c0.435,0.308,1.117,0.424,1.67,0.382c5.035-0.382,9.594,2.452,14.618,2.143c0.54-0.033,1.118,0.24,1.649,0.446
			c4.077,1.582,8.582-1.704,8.591-6.178c0.004-1.904,0.145-3.842,0.531-5.7c0.263-1.256,1.199-2.224,2.751-1.62
			c1.438,0.56,2.022,1.52,1.333,3.075c-0.247,0.559-0.259,1.222-0.382,1.857c0.747,0.301,1.39,0.455,1.915,0.792
			c1.351,0.866,1.676,2.504,0.46,3.496c-3.293,2.688-3.293,6.099-2.651,9.814c0.145,0.832-0.326,1.769-0.514,2.658
			c-0.268-0.015-0.534-0.029-0.802-0.044c-0.575-1.639-1.15-3.277-1.694-4.827c-2.925,1.734-5.691,3.375-7.521,4.461
			c-6.928-1.587-12.918-2.96-18.526-4.245c0.11,3.429,0.154,6.729,0.349,10.021c0.087,1.486,0.167,3.041,2.419,3.165
			c0.774,0.043,1.555,1.084,2.176,1.804c0.124,0.143-0.46,1.3-0.725,1.302c-0.915,0.009-2.087,0.009-2.702-0.521
			c-1.787-1.535-2.499,0.636-3.183,0.82c-2.055-2.725-3.92-5.199-5.985-7.938c-0.623,3.961,1.68,11.548,5.012,17.228
			c0.729,0.819,1.455,1.638,2.299,2.587c0.637-0.827,1.28-1.663,1.992-2.587C291.975,134.77,290.659,134.77,289.345,134.77z
			 M262.634,65.486c-2.825,0.593-5.313,1.116-7.84,1.646c1.554,2.697,3.288,3.782,4.237,2.584c-0.233-0.475-0.492-1.004-0.727-1.483
			C259.726,67.332,261.003,66.521,262.634,65.486z M264.437,67.521c0.013-0.226,0.026-0.452,0.039-0.678c-1.17,0-2.341,0-3.842,0
			C261.882,69.28,263.227,67.785,264.437,67.521z"/>
		<path fill-rule="evenodd" clip-rule="evenodd" d="M266.495,246.068c-0.906,0.441-1.813,0.883-2.719,1.324
			c-0.11-0.375-0.399-1.019-0.302-1.084c0.773-0.518,1.621-0.927,2.446-1.369C266.112,245.316,266.304,245.692,266.495,246.068z"/>
		<path fill-rule="evenodd" clip-rule="evenodd" fill="#FFFFFF" d="M70.728,82.5c-1.912,2.064-3.973,4.29-6.079,6.564
			c-0.863-2.608-0.459-3.441,3.817-8.098C69.213,81.473,69.968,81.985,70.728,82.5z"/>
		<path fill-rule="evenodd" clip-rule="evenodd" fill="#FFFFFF" d="M35.069,158.002c1.311-0.989,2.142-1.617,3.256-2.458
			c0.213,1.023,0.363,1.743,0.557,2.677C37.66,158.151,36.643,158.093,35.069,158.002z"/>
		<path fill-rule="evenodd" clip-rule="evenodd" fill="#FFFFFF" d="M262.634,65.486c-1.631,1.035-2.908,1.846-4.329,2.748
			c0.234,0.479,0.493,1.008,0.727,1.483c-0.949,1.198-2.684,0.112-4.237-2.584C257.32,66.602,259.809,66.08,262.634,65.486z"/>
		<path fill-rule="evenodd" clip-rule="evenodd" fill="#FFFFFF" d="M289.345,134.77c1.314,0,2.63,0,4.296,0
			c-0.712,0.924-1.355,1.761-1.992,2.587c-0.844-0.949-1.57-1.769-2.299-2.587C289.35,134.77,289.345,134.77,289.345,134.77z"/>
		<path fill-rule="evenodd" clip-rule="evenodd" fill="#FFFFFF" d="M264.437,67.521c-1.21,0.264-2.555,1.759-3.803-0.678
			c1.501,0,2.672,0,3.842,0C264.463,67.07,264.449,67.295,264.437,67.521z"/>
	</g>
</g>
</svg>
